/* XPM */
static const char *black_white_xpm[] = {
/* columns rows colors chars-per-pixel */
"32 1 105 2 ",
"   c #010101",
".  c #030303",
"X  c #040404",
"o  c #090909",
"O  c #0A0A0A",
"+  c #0B0A0B",
"@  c #111111",
"#  c #121212",
"$  c #121213",
"%  c #121313",
"&  c #1A1A1A",
"*  c #1A1B1B",
"=  c #222222",
"-  c #222323",
";  c #232323",
":  c #2A2A2A",
">  c #2B2B2B",
",  c #323233",
"<  c #333333",
"1  c #343434",
"2  c #353535",
"3  c #3A3A3B",
"4  c #3B3B3B",
"5  c #3E3E3F",
"6  c #404040",
"7  c #434344",
"8  c #444344",
"9  c #444444",
"0  c #454545",
"q  c #464646",
"w  c #474748",
"e  c #4B4B4B",
"r  c #4C4C4C",
"t  c #4D4C4C",
"y  c #4D4D4D",
"u  c #545454",
"i  c #555454",
"p  c #5C5C5C",
"a  c #5D5C5C",
"s  c #5D5D5D",
"d  c #656565",
"f  c #666666",
"g  c #6D6D6D",
"h  c #6E6E6E",
"j  c #6E6F6F",
"k  c #6F6F6F",
"l  c #767676",
"z  c #777777",
"x  c #7E7E7E",
"c  c #7F7F7F",
"v  c #808080",
"b  c #878787",
"n  c #878788",
"m  c #888888",
"M  c #8F8F8F",
"N  c #909090",
"B  c #909091",
"V  c #979797",
"C  c #989897",
"Z  c #989898",
"A  c #989899",
"S  c #999999",
"D  c #9F9F9F",
"F  c #A0A09F",
"G  c #A0A1A0",
"H  c #A1A1A0",
"J  c #A1A1A1",
"K  c #A8A8A8",
"L  c #A9A9A9",
"P  c #A9AAA9",
"I  c #B0B1B0",
"U  c #B0B1B1",
"Y  c #B1B2B1",
"T  c #B2B2B2",
"R  c #B8B9B9",
"E  c #B9B9B9",
"W  c #B9BAB9",
"Q  c #BABABA",
"!  c #C0C2C1",
"~  c #C1C2C1",
"^  c #C1C2C2",
"/  c #C2C2C2",
"(  c #C3C3C3",
")  c #C9CACA",
"_  c #CACACA",
"`  c #CBCBCA",
"'  c #CBCBCB",
"]  c #D2D2D2",
"[  c #D3D3D2",
"{  c #D4D4D3",
"}  c #DBDBDA",
"|  c #DBDBDB",
" . c #DCDCDC",
".. c #E3E3E2",
"X. c #E3E3E3",
"o. c #E4E4E4",
"O. c #EBEBEB",
"+. c #ECECEC",
"@. c #EDEDEC",
"#. c #F4F3F4",
"$. c #F4F4F4",
"%. c #F5F4F4",
"&. c #F5F5F5",
"*. c #F9F8F9",
"=. c #FAFAFA",
/* pixels */
"  X + @ & ; > < 4 8 r i s d g l x b M V D K I R ! ) ] } ..O.#.*."
};
