/* XPM */
static const char * blue_red_xpm[] = {
"32 1 4 1",
" 	c None",
".	c #0092FF",
"+	c #009BFF",
"@	c #FF0000",
"...............+@@@@@@@@@@@@@@@@"};
