/* XPM */
static const char *cei_60757_xpm[] = {
/* columns rows colors chars-per-pixel */
"32 1 30 1 ",
"  c #000000",
". c #130C03",
"X c #5C3C12",
"o c #FA0301",
"O c #FF0600",
"+ c #CB270B",
"@ c #87581A",
"# c #925218",
"$ c #FF4800",
"% c #00FF00",
"& c #38FF00",
"* c #00DD22",
"= c #FF9900",
"- c #FFA600",
"; c #FFC200",
": c #C7FF00",
"> c #FFF300",
", c #FFFF00",
"< c #0053AC",
"1 c #0003FC",
"2 c #0B01FB",
"3 c #5100EB",
"4 c #8C00DB",
"5 c #9206D9",
"6 c #A453CD",
"7 c #BEBEBE",
"8 c #BAB0C0",
"9 c #D3D3D2",
"0 c #F6F6F6",
"q c #FFFFFF",
/* pixels */
"  .X@#+oO$=-;>,:&%*<1234568790qq"
};
